<?xml version="1.0" encoding="UTF-8" standalone="no"?>
<!-- Created with Inkscape (http://www.inkscape.org/) -->
<svg
   xmlns:dc="http://purl.org/dc/elements/1.1/"
   xmlns:cc="http://web.resource.org/cc/"
   xmlns:rdf="http://www.w3.org/1999/02/22-rdf-syntax-ns#"
   xmlns:svg="http://www.w3.org/2000/svg"
   xmlns="http://www.w3.org/2000/svg"
   xmlns:sodipodi="http://sodipodi.sourceforge.net/DTD/sodipodi-0.dtd"
   xmlns:inkscape="http://www.inkscape.org/namespaces/inkscape"
   id="svg2"
   sodipodi:version="0.32"
   inkscape:version="0.45.1"
   width="176"
   height="132"
   version="1.0"
   sodipodi:docbase="C:\Dokumente und Einstellungen\Sohiel\Desktop"
   sodipodi:docname="BR-Logo.svg"
   inkscape:output_extension="org.inkscape.output.svg.inkscape">
  <metadata
     id="metadata7">
    <rdf:RDF>
      <cc:Work
         rdf:about="">
        <dc:format>image/svg+xml</dc:format>
        <dc:type
           rdf:resource="http://purl.org/dc/dcmitype/StillImage" />
      </cc:Work>
    </rdf:RDF>
  </metadata>
  <defs
     id="defs5" />
  <sodipodi:namedview
     inkscape:window-height="724"
     inkscape:window-width="1024"
     inkscape:pageshadow="2"
     inkscape:pageopacity="0.0"
     guidetolerance="10.0"
     gridtolerance="10.0"
     objecttolerance="10.0"
     borderopacity="1.0"
     bordercolor="#666666"
     pagecolor="#ffffff"
     id="base"
     inkscape:zoom="1"
     inkscape:cx="73.403753"
     inkscape:cy="16.682471"
     inkscape:window-x="-4"
     inkscape:window-y="-4"
     inkscape:current-layer="svg2" />
  <path
     style="fill:#3266aa;fill-opacity:1"
     d="M 40.25,120.98264 L 21,121 L 21,66.071956 L 21,11.143913 L 26.75,10.410851 C 29.9125,10.007666 39.25,9.6377861 47.5,9.5888943 C 59.185453,9.519643 63.755896,9.8886022 68.183564,11.258621 C 71.309524,12.225863 75.809524,14.496876 78.183564,16.305317 C 80.557604,18.113758 83.625,21.597378 85,24.046696 C 87.121309,27.82543 88.5,29.787548 88.5,37 C 88.5,44.566851 87.171896,46.092443 84.511322,50.896525 C 82.86755,53.864613 80.28005,57.211739 78.761322,58.334583 C 77.242595,59.457427 76,60.685241 76,61.063058 C 76,61.440876 77.282592,62.006518 78.850204,62.320041 C 80.417817,62.633563 83.680317,64.398326 86.100204,66.241737 C 88.520092,68.085147 91.625,71.597378 93,74.046696 C 95.164494,77.902355 96.244338,79.707823 96.207807,87.5 C 96.171564,95.230896 95.042838,97.217751 92.772029,101.59002 C 91.318057,104.38953 88.507932,108.10287 86.527307,109.84188 C 84.546681,111.58089 80.639263,114.16258 77.844156,115.57897 C 75.049048,116.99536 69.77816,118.78671 66.131071,119.55975 C 61.76988,120.48415 52.910538,120.97122 40.25,120.98264 z M 50.75,104.84609 C 59.715085,104.53322 62.329953,104.05824 66.498555,101.98546 C 69.32041,100.58233 72.477537,98.020338 73.748555,96.102117 C 75.422004,93.576546 75.994362,91.266045 75.978038,87.102117 C 75.964996,83.77525 75.18379,79.79896 74.054554,77.3117 C 72.967585,74.917537 70.39887,71.852692 68.058051,70.157011 C 65.805811,68.525497 61.833878,66.724853 59.231534,66.155581 C 56.62919,65.586308 52.7,64.815274 50.5,64.442173 L 46.5,63.763807 L 51.420935,62.301801 C 54.127449,61.497698 57.82255,59.833647 59.63227,58.60391 C 61.441991,57.374174 63.865723,55.169129 65.018342,53.703811 C 66.170961,52.238494 67.611797,48.362898 68.220201,45.091377 C 69.160144,40.03709 69.066291,38.462103 67.595705,34.611427 C 66.459299,31.635793 64.731,29.378834 62.562474,28.038611 C 60.746073,26.916014 56.94214,25.557965 54.10929,25.020726 C 51.276439,24.483487 46.942956,24.32021 44.479326,24.657888 L 40,25.271848 L 40,65.246548 L 40,105.22125 L 50.75,104.84609 z M 153.70679,121 L 142.41359,121 L 124.60508,96.490862 C 114.8104,83.010836 104.96135,70.410836 102.71829,68.490862 C 100.47523,66.570888 98.521002,64 98.070001,64 C 97.619001,64 98.388366,63.36545 98,63.637681 C 97.25,64.163406 99.715707,63.485567 102.72935,63.131373 C 105.74299,62.777179 110.47987,61.04409 113.56131,59.891177 C 116.64275,58.738263 120.72503,56.424302 122.63304,54.749041 C 124.54106,53.073781 126.75418,50.442259 127.55108,48.901216 C 128.34799,47.360173 129,43.89352 129,41.197543 C 129,37.767962 128.32322,35.291487 126.7466,32.951949 C 125.50723,31.11285 122.91973,28.685892 120.9966,27.55871 C 118.16836,25.901023 115.34287,25.43977 106.21469,25.145597 L 94.929384,24.781906 L 93.023607,21.046273 C 91.975429,18.991674 89.469061,15.863002 87.4539,14.093667 C 85.438739,12.324333 83.091417,10.575249 83.459851,10.206815 C 83.828285,9.8383813 93.313042,9.5286249 103.31487,9.5184677 C 117.74966,9.5038086 122.64743,9.8555027 127.0638,11.223805 C 130.12389,12.171898 134.50975,14.311035 136.81016,15.977443 C 139.11057,17.64385 142.31196,20.828426 143.92436,23.054278 C 145.53676,25.280129 147.34695,29.390524 147.947,32.188488 C 148.73665,35.870485 148.73459,38.949003 147.93953,43.333475 C 147.33536,46.665254 146.01474,51.010949 145.00481,52.990575 C 143.99488,54.970202 141.11011,58.48732 138.59421,60.806393 C 136.07832,63.125466 132.44039,65.776085 130.50993,66.696657 C 128.57947,67.617229 127,68.651623 127,68.99531 C 127,69.338997 135.54751,80.843151 145.99446,94.560097 C 156.44141,108.27704 164.61641,120.3375 164.61946,120.75 C 164.62251,121.1625 159.91806,121 153.70679,121 z "
     id="path3165"
     sodipodi:nodetypes="cccccssssssssssssssssccsssssscccssssssccccccccsssssssssscccssssssssssssssc" />
</svg>
